<?xml version="1.0" standalone="no"?>
<!DOCTYPE svg PUBLIC "-//W3C//DTD SVG 20010904//EN"
 "http://www.w3.org/TR/2001/REC-SVG-20010904/DTD/svg10.dtd">
<svg version="1.0" xmlns="http://www.w3.org/2000/svg"
 width="589.000000pt" height="424.000000pt" viewBox="0 0 589.000000 424.000000"
 preserveAspectRatio="xMidYMid meet">

<g transform="translate(0.000000,424.000000) scale(0.100000,-0.100000)"
fill="#ffffff" stroke="none">
<path d="M668 4031 c-219 -236 -342 -577 -308 -857 34 -286 125 -453 305 -560
33 -20 78 -53 100 -73 71 -65 154 -98 420 -167 197 -50 233 -76 221 -158 -7
-45 -80 -176 -98 -176 -6 0 -32 13 -58 29 -54 34 -159 80 -245 109 -101 34
-192 45 -332 40 -127 -4 -132 -5 -206 -41 -169 -84 -266 -263 -255 -473 8
-144 60 -238 160 -288 96 -48 219 -29 372 59 44 25 85 45 91 45 17 0 140 -89
200 -144 l50 -45 -77 -1 c-141 0 -226 -47 -278 -153 -73 -148 -56 -298 43
-382 22 -19 57 -40 76 -45 93 -26 228 -2 355 62 l58 30 78 -31 c144 -58 223
-74 365 -75 153 -1 211 14 308 78 54 36 122 113 162 180 9 16 15 16 95 -3 162
-38 423 -49 605 -25 l40 5 23 -65 c29 -80 111 -216 176 -291 145 -168 373
-282 599 -301 79 -6 86 -8 97 -33 23 -51 96 -135 153 -177 91 -68 181 -87 282
-61 l50 13 3 49 c5 74 -25 219 -67 325 l-38 95 121 11 c67 6 144 15 171 20 28
4 54 8 58 9 5 0 21 -32 37 -72 129 -320 389 -421 698 -270 57 28 62 33 58 56
-3 14 -8 67 -11 116 -13 180 -57 375 -121 539 -43 108 -95 212 -126 249 l-23
27 -85 -16 c-99 -19 -181 -9 -259 31 -137 70 -239 240 -296 488 -27 120 -27
120 68 157 260 103 417 220 487 363 39 80 51 189 30 279 -32 134 -136 294
-287 439 -58 57 -185 161 -219 181 -7 5 -10 -45 -10 -155 0 -182 -13 -280 -51
-376 -120 -305 -426 -398 -988 -300 -66 11 -135 21 -154 20 -18 0 -30 3 -27 6
3 4 -31 18 -77 33 -167 54 -361 162 -472 262 -27 25 -53 45 -58 44 -11 -2
-169 199 -193 247 l-15 28 88 -44 c179 -90 389 -145 589 -154 100 -5 132 -2
179 12 179 57 338 224 431 455 94 231 96 421 9 536 -49 64 -153 92 -257 71
-37 -8 -38 -7 -38 23 0 69 -58 153 -132 191 -50 26 -160 26 -227 0 -27 -10
-98 -52 -157 -93 -385 -266 -671 -309 -922 -139 -216 146 -410 155 -613 28
-14 -9 -42 0 -136 42 -65 30 -136 62 -158 71 -22 10 -112 50 -201 89 -88 39
-163 71 -166 71 -3 0 -35 -31 -70 -69z m2592 -126 c37 -19 50 -43 50 -94 0
-68 -14 -83 -133 -148 -290 -157 -525 -230 -787 -241 l-145 -7 70 -19 c103
-28 297 -33 427 -11 202 34 409 108 590 211 134 77 177 94 231 94 56 0 83 -28
97 -101 26 -137 -38 -350 -155 -515 -72 -100 -152 -161 -250 -190 -51 -14 -71
-15 -169 -4 -61 6 -142 18 -180 27 -37 8 -73 16 -80 17 -6 1 -55 17 -108 35
-115 39 -268 115 -357 178 l-64 46 7 -59 c16 -133 66 -276 129 -369 14 -21 24
-42 22 -45 -6 -10 -168 -101 -235 -132 -116 -55 -309 -108 -471 -132 -117 -17
-324 -21 -334 -7 -6 10 -129 52 -212 72 -29 7 -53 15 -53 19 0 3 33 14 73 24
105 27 206 76 252 124 39 41 67 99 42 89 -197 -86 -297 -109 -467 -110 -179
-1 -286 34 -384 124 -124 113 -192 348 -166 578 14 128 19 144 39 135 31 -13
156 -16 198 -5 55 15 154 89 198 148 26 36 89 149 101 181 0 1 85 -34 188 -79
l188 -81 32 30 c77 75 221 109 326 78 54 -16 75 -27 233 -119 105 -60 192 -82
332 -81 124 1 227 24 361 79 114 47 241 120 325 186 56 44 147 89 181 89 16 0
42 -7 58 -15z m1412 -1113 c51 -56 95 -124 131 -200 29 -61 32 -76 32 -162 0
-80 -4 -103 -25 -144 -63 -129 -247 -250 -500 -331 -30 -10 -58 -19 -61 -21
-7 -4 7 -133 26 -225 54 -270 162 -469 310 -575 91 -64 159 -86 276 -86 53 0
106 3 117 6 17 6 25 -4 55 -66 76 -161 138 -393 153 -579 l7 -75 -34 -15 c-21
-9 -69 -14 -129 -14 -80 0 -102 4 -138 23 -55 29 -114 90 -151 156 -31 55 -81
186 -81 214 -1 39 -13 43 -76 28 -99 -25 -289 -39 -424 -32 -372 19 -613 107
-801 295 -91 91 -147 176 -194 296 -15 39 -29 72 -32 75 -3 3 -3 -44 -2 -105
l3 -110 -90 -17 c-326 -61 -667 -47 -891 37 -71 27 -188 89 -198 105 -3 5 -1
27 5 47 6 21 10 81 8 133 l-3 95 -24 -60 c-39 -96 -125 -236 -178 -287 -82
-80 -142 -95 -228 -54 -66 31 -130 80 -256 196 -56 52 -107 100 -113 105 -40
36 -129 108 -176 139 -30 21 -56 39 -58 41 -2 2 7 20 21 42 27 43 47 97 47
125 0 15 -18 3 -76 -51 -43 -40 -108 -90 -146 -113 -91 -54 -219 -98 -286 -98
-48 0 -58 4 -87 33 -39 39 -55 89 -55 173 0 156 87 291 215 335 65 23 262 17
360 -10 89 -25 241 -93 307 -139 24 -16 46 -30 51 -31 4 0 18 -12 30 -26 l22
-26 56 73 c67 88 123 182 143 240 l14 43 124 7 c282 14 527 85 771 222 37 21
67 42 67 47 0 6 3 8 8 6 4 -2 27 10 52 28 l45 32 80 -62 c209 -162 458 -266
760 -316 179 -31 510 -33 630 -5 203 47 360 158 443 314 38 71 79 211 88 297
4 36 10 65 14 65 4 0 23 -17 42 -38z m-1422 -532 c0 -5 -5 -10 -11 -10 -5 0
-7 5 -4 10 3 6 8 10 11 10 2 0 4 -4 4 -10z"/>
<path d="M1593 3449 c21 -24 45 -65 55 -91 9 -27 20 -48 24 -48 13 0 29 81 23
111 -8 37 -41 59 -97 67 l-42 5 37 -44z"/>
<path d="M1052 3048 c-13 -13 -16 -37 -6 -62 10 -25 63 -21 73 7 17 42 -36 86
-67 55z"/>
<path d="M736 2974 c-9 -8 -16 -22 -16 -29 0 -18 27 -45 45 -45 18 0 45 27 45
45 0 18 -27 45 -45 45 -7 0 -21 -7 -29 -16z"/>
<path d="M900 2880 c-26 -26 -25 -60 0 -88 42 -45 110 -17 110 46 0 56 -70 82
-110 42z"/>
</g>
</svg>
